<svg xmlns="http://www.w3.org/2000/svg" width="202.983" height="27.927" viewBox="0 0 202.983 27.927">
  <g id="Logo" transform="translate(-59.598 -357.262)">
    <path id="Path_3" data-name="Path 3" d="M470.823,370.394h-.007q0,5.774,0,11.552a9.678,9.678,0,0,1-.093,1.061,2.132,2.132,0,0,1-1.545,2.064,3.083,3.083,0,0,1-3.016-.758c-1.8-1.692-3.571-3.409-5.354-5.116-2.017-1.931-4.085-3.818-6.036-5.807-1.7-1.733-3.6-3.272-5.233-5.074-.531-.588-1.193-1.088-1.73-1.7a.865.865,0,0,0-.981-.355c-.393.162-.3.555-.3.877q-.005,8.292-.005,16.585c0,1.05-.067,1.115-1.179,1.121-.89.007-1.781.018-2.671,0-.847-.02-1.135-.3-.985-1.068a12.419,12.419,0,0,0,.117-2.382c.005-6.517,0-13.036.01-19.554a8.97,8.97,0,0,1-.005-2.285,2.512,2.512,0,0,1,1.645-2.12,2.9,2.9,0,0,1,2.912.736c3.761,3.541,7.475,7.125,11.206,10.692q3.733,3.571,7.473,7.131c.226.216.412.637.818.472.39-.157.264-.571.264-.888q0-8.582,0-17.162c0-1,.143-1.139,1.185-1.147.717-.005,1.436-.015,2.154,0,1.141.026,1.364.241,1.364,1.322Q470.829,364.5,470.823,370.394Z" transform="translate(-208.243 0)" fill="#c20227"/>
    <path id="Path_4" data-name="Path 4" d="M188.147,367.731a12.764,12.764,0,0,0-3.233-6.434,11.725,11.725,0,0,0-8.623-3.718c-4.824-.03-9.649.018-14.472-.031-.908-.009-1.1.313-1.09,1.206.027,3.083.024,6.165.02,9.246,0,.077,0,.153,0,.228a.025.025,0,0,0,0,.016q0,1.508,0,3.018,0,1.638,0,3.274c.005,3.171.01,6.34-.02,9.511-.009.906.271,1.14,1.081,1.135,4.392-.037,8.785-.052,13.179-.008a13.389,13.389,0,0,0,6.187-1.248,12.61,12.61,0,0,0,6.554-7.8A16.263,16.263,0,0,0,188.147,367.731Zm-5.361,8.465a7.512,7.512,0,0,1-4.726,3.835,13.5,13.5,0,0,1-3.411.344c-2.844-.024-5.687-.028-8.53.009-.619.007-.8-.2-.793-.832.016-2,.012-3.991.01-5.985,0-.735,0-1.471,0-2.206,0-1.473.007-2.946.007-4.419q0-1.84-.014-3.678c-.007-.676.207-.919.845-.915,3.39.024,6.785-.114,10.168.05a7.9,7.9,0,0,1,7.307,6.268A10.021,10.021,0,0,1,182.787,376.2Z" transform="translate(-55.124 -0.156)" fill="#515353"/>
    <path id="Path_5" data-name="Path 5" d="M259.028,366.012a12.035,12.035,0,0,0-3.668-5.793,11.814,11.814,0,0,0-7.8-2.932c-2.385-.02-4.769-.046-7.154,0a11.991,11.991,0,0,0-6.313,1.835,12.224,12.224,0,0,0-5.394,7.756,16.417,16.417,0,0,0,.329,9c1.516,4.706,4.478,7.652,9,8.811a25.82,25.82,0,0,0,5.652.329c1.583,0,2.733-.016,3.881.006a10.4,10.4,0,0,0,3.694-.741,12.042,12.042,0,0,0,7.238-7.13A16.474,16.474,0,0,0,259.028,366.012Zm-5.288,10.434a7.718,7.718,0,0,1-6.458,3.746c-1.145.061-2.3.011-3.778.011-1.407-.1-3.156.189-4.885-.348a7.933,7.933,0,0,1-5.383-5.537,10.449,10.449,0,0,1-.2-5.637c.85-3.591,2.969-5.885,6.4-6.385a28.3,28.3,0,0,1,9.433.071c3.661.707,5.853,3.6,6.237,7.648A9.943,9.943,0,0,1,253.739,376.446Z" transform="translate(-91.913 0)" fill="#515353"/>
    <path id="Path_6" data-name="Path 6" d="M335.191,358.607c-.054.705-.012,1.417-.01,2.127,0,1.63,0,1.633-1.692,1.633q-3.318,0-6.635,0t-6.635,0a8.483,8.483,0,0,0-8.837,7.992,9.842,9.842,0,0,0,1.019,5.6,8.2,8.2,0,0,0,7.337,4.5c4.707.179,9.415.032,14.122.1,1.228.017,1.319.1,1.319,1.32,0,.852-.007,1.7,0,2.553a.768.768,0,0,1-.878.894c-4.883-.005-9.77.114-14.646-.046a12.987,12.987,0,0,1-9.324-4.094,13.536,13.536,0,0,1-3.1-5.392,15.407,15.407,0,0,1-.143-8.755,12.011,12.011,0,0,1,7.752-8.447,16.532,16.532,0,0,1,5.963-1.006q6.676.048,13.355,0C334.963,357.577,335.251,357.825,335.191,358.607Z" transform="translate(-134.594 -0.175)" fill="#c20227"/>
    <path id="Path_7" data-name="Path 7" d="M403.072,384.142c.045.731-.234.913-.936.908-4.566-.028-9.133-.014-13.7-.014q-4.309,0-8.617,0c-1.381,0-1.655-.272-1.657-1.67q-.005-2.7,0-5.4,0-3.531,0-7.062,0-4.15,0-8.3v-4.153c0-1.169.005-1.178,1.123-1.178,7.584,0,15.165.01,22.748-.012.761,0,1.1.169,1.026,1a16.65,16.65,0,0,0,0,2.574c.055.812-.274,1.032-1.048,1.029-5.945-.028-11.891-.021-17.836-.028-1.233,0-1.319.1-1.316,1.307q.018,7.987.005,15.977c0,1.219.321,1.48,1.555,1.288a5.68,5.68,0,0,1,.855-.064c5.571,0,11.144.012,16.715-.017.823-.005,1.14.231,1.083,1.068A21.9,21.9,0,0,0,403.072,384.142Z" transform="translate(-173.64)" fill="#c20227"/>
    <path id="Path_8" data-name="Path 8" d="M93.071,358.182c-2.3,4.01-4.616,8.01-6.9,12.031-2.248,3.959-4.462,7.939-6.7,11.905-.323.573-.666,1.132-1.038,1.668-1.148,1.655-2.861,1.659-3.983-.022-.616-.924-1.145-1.913-1.7-2.879-1.807-3.132-3.578-6.285-5.389-9.417s-3.522-6.322-5.335-9.452c-.757-1.311-1.507-2.629-2.273-3.934-.289-.492-.165-.762.352-.786.745-.035,1.493-.009,2.552-.009a3.61,3.61,0,0,1,3.668,2.381c1.543,3.052,3.27,6.005,5,8.951,1.654,2.816,3.159,5.732,4.728,8.6.55,1,.586,1.012,1.141.022q2.514-4.487,5.013-8.982,2.79-5.029,5.556-10.073a1.524,1.524,0,0,1,1.531-.926c1.09.046,2.183,0,3.274.02C93.346,357.3,93.456,357.512,93.071,358.182Z" transform="translate(0 0)" fill="#515353"/>
    <path id="Path_9" data-name="Path 9" d="M145.607,371.17v12.661c0,1.14-.031,1.173-1.126,1.176-.86,0-1.724-.031-2.583.015-.681.037-.9-.244-.892-.964.028-3.266.012-6.531.014-9.8,0-5.268.02-10.536-.019-15.8-.005-.933.235-1.269,1.115-1.184a15.008,15.008,0,0,0,2.5,0c.755-.054,1.01.241,1,1.049C145.593,362.606,145.607,366.888,145.607,371.17Z" transform="translate(-44.371 0)" fill="#515353"/>
    <path id="Path_10" data-name="Path 10" d="M412.479,383.483c-.041.655-.009,1.315-.009,1.974,0,.954-.172,1.136-1.162,1.138q-4.436.008-8.87,0c-1.494,0-2.987.009-4.48,0-1.034-.009-1.11-.1-1.109-1.136,0-.716.036-1.433-.01-2.146s.214-.958.935-.946c2.3.034,4.593.012,6.89.012v0c2.24,0,4.478.021,6.718-.01C412.2,382.348,412.532,382.67,412.479,383.483Z" transform="translate(-183.819 -13.679)" fill="#c20227"/>
  </g>
</svg>
